<svg xmlns="http://www.w3.org/2000/svg" xmlns:xlink="http://www.w3.org/1999/xlink" width="900" height="1240"><g transform="translate(-160 -40)"><path d="M420 900h160v80H420z" stroke="#000" stroke-width="2" fill="#7ab648"/><use xlink:href="#a" transform="matrix(1,0,0,1,425,905) translate(29.074999999999996 38.6)"/><path d="M420 1040h160v80H420z" stroke="#000" stroke-width="2" fill="#fff"/><use xlink:href="#b" transform="matrix(1,0,0,1,425,1045) translate(32.55 38.6)"/><path d="M420 1180h160v80H420z" stroke="#fff" stroke-width="2" fill="#0c7cba"/><use xlink:href="#c" transform="matrix(1,0,0,1,425,1185) translate(31.525 27.799999999999997)"/><use xlink:href="#d" transform="matrix(1,0,0,1,425,1185) translate(103.475 27.799999999999997)"/><use xlink:href="#e" transform="matrix(1,0,0,1,425,1185) translate(29.074999999999996 49.4)"/><path d="M420 760h160v80H420z" stroke="#000" stroke-width="2" fill="#fff"/><use xlink:href="#f" transform="matrix(1,0,0,1,424.9999999999999,765) translate(49.025 38.6)"/><path d="M420 620h160v80H420z" stroke="#000" stroke-width="2" fill="#fff"/><use xlink:href="#g" transform="matrix(1,0,0,1,424.9999999999999,625) translate(27.049999999999997 38.6)"/><path d="M180 1020h160v80H180z" stroke="#000" stroke-width="2" fill="#fff"/><use xlink:href="#h" transform="matrix(1,0,0,1,185,1025) translate(42.525 38.6)"/><path d="M200 1040h160v80H200z" stroke="#000" stroke-width="2" fill="#fff"/><use xlink:href="#i" transform="matrix(1,0,0,1,205,1045) translate(41.55 27.799999999999997)"/><use xlink:href="#j" transform="matrix(1,0,0,1,205,1045) translate(41.05 49.4)"/><path d="M500 1180v-60" stroke="#0c7cba" stroke-width="2" fill="none"/><path d="M504.64 1134.27h-9.28L500 1120z" fill="#0c7cba"/><path d="M506 1135.27h-12l4.95-15.27h2.1zm-9.26-2h6.52l-3.26-10.03z" fill="#0c7cba"/><path d="M180 880h160v80H180z" stroke="#000" stroke-width="2" fill="#fff"/><use xlink:href="#h" transform="matrix(1,0,0,1,185,885) translate(42.525 38.6)"/><path d="M200 900h160v80H200z" stroke="#000" stroke-width="2" fill="#fff"/><use xlink:href="#i" transform="matrix(1,0,0,1,205,905) translate(41.55 27.799999999999997)"/><use xlink:href="#j" transform="matrix(1,0,0,1,205,905) translate(41.05 49.4)"/><path d="M180 740h160v80H180z" stroke="#000" stroke-width="2" fill="#fff"/><use xlink:href="#h" transform="matrix(1,0,0,1,185,745) translate(42.525 38.6)"/><path d="M200 760h160v80H200z" stroke="#000" stroke-width="2" fill="#fff"/><use xlink:href="#i" transform="matrix(1,0,0,1,205,765) translate(41.55 27.799999999999997)"/><use xlink:href="#j" transform="matrix(1,0,0,1,205,765) translate(41.05 49.4)"/><path d="M420 1080h-59" stroke="#0c7cba" stroke-width="2" fill="none"/><path d="M375.27 1084.64L361 1080l14.27-4.64z" fill="#0c7cba"/><path d="M376.27 1086l-16.27-5.27v-1.46l16.27-5.28zm-12.03-6l10.03 3.26v-6.52z" fill="#0c7cba"/><path d="M420 940h-59" stroke="#0c7cba" stroke-width="2" fill="none"/><path d="M375.27 944.64L361 940l14.27-4.64z" fill="#0c7cba"/><path d="M376.27 946L360 940.74v-1.46l16.27-5.28zm-12.03-6l10.03 3.26v-6.52z" fill="#0c7cba"/><path d="M420 800h-59" stroke="#0c7cba" stroke-width="2" fill="none"/><path d="M375.27 804.64L361 800l14.27-4.64z" fill="#0c7cba"/><path d="M376.27 806L360 800.74v-1.46l16.27-5.28zm-12.03-6l10.03 3.26v-6.52z" fill="#0c7cba"/><path d="M260 1020v-20h240v-20" stroke="#0c7cba" stroke-width="2" fill="none"/><path d="M504.64 994.27h-9.28L500 980z" fill="#0c7cba"/><path d="M506 995.27h-12l4.95-15.27h2.1zm-9.26-2h6.52L500 983.24z" fill="#0c7cba"/><path d="M260 740v-20h240v-20" stroke="#0c7cba" stroke-width="2" fill="none"/><path d="M504.64 714.27h-9.28L500 700z" fill="#0c7cba"/><path d="M506 715.27h-12l4.95-15.27h2.1zm-9.26-2h6.52L500 703.24z" fill="#0c7cba"/><path d="M640 900h160v80H640z" stroke="#000" stroke-width="2" fill="#fff"/><use xlink:href="#k" transform="matrix(1,0,0,1,645,905) translate(29.074999999999996 27.799999999999997)"/><use xlink:href="#b" transform="matrix(1,0,0,1,645,905) translate(32.55 49.4)"/><path d="M640 760h160v80H640z" stroke="#000" stroke-width="2" fill="#fff"/><use xlink:href="#l" transform="matrix(1,0,0,1,644.9999999999998,765) translate(49.025 27.799999999999997)"/><use xlink:href="#b" transform="matrix(1,0,0,1,644.9999999999998,765) translate(32.55 49.4)"/><path d="M640 620h160v80H640z" stroke="#000" stroke-width="2" fill="#fff"/><use xlink:href="#m" transform="matrix(1,0,0,1,645,625) translate(27.049999999999997 27.799999999999997)"/><use xlink:href="#b" transform="matrix(1,0,0,1,645,625) translate(32.55 49.4)"/><path d="M260 880v-20h240v-20" stroke="#0c7cba" stroke-width="2" fill="none"/><path d="M504.64 854.27h-9.28L500 840z" fill="#0c7cba"/><path d="M506 855.27h-12l4.95-15.27h2.1zm-9.26-2h6.52L500 843.24z" fill="#0c7cba"/><path d="M580 940h59" stroke="#7ab648" stroke-width="2" fill="none"/><path d="M639 940l-14.27 4.64v-9.28z" fill="#7ab648"/><path d="M640 939.27v1.46L623.73 946v-12zm-14.27 4l10.03-3.27-10.03-3.26z" fill="#7ab648"/><path d="M880 880h160v80H880z" stroke="#000" stroke-width="2" fill="#fff"/><use xlink:href="#h" transform="matrix(1,0,0,1,885,885) translate(42.525 38.6)"/><path d="M860 900h160v80H860z" stroke="#000" stroke-width="2" fill="#fff"/><use xlink:href="#i" transform="matrix(1,0,0,1,865,905) translate(41.55 27.799999999999997)"/><use xlink:href="#j" transform="matrix(1,0,0,1,865,905) translate(41.05 49.4)"/><path d="M880 740h160v80H880z" stroke="#000" stroke-width="2" fill="#fff"/><use xlink:href="#h" transform="matrix(1,0,0,1,885.0000000000001,745) translate(42.525 38.6)"/><path d="M860 760h160v80H860z" stroke="#000" stroke-width="2" fill="#fff"/><use xlink:href="#i" transform="matrix(1,0,0,1,865.0000000000001,765) translate(41.55 27.799999999999997)"/><use xlink:href="#j" transform="matrix(1,0,0,1,865.0000000000001,765) translate(41.05 49.4)"/><path d="M880 600h160v80H880z" stroke="#000" stroke-width="2" fill="#fff"/><use xlink:href="#h" transform="matrix(1,0,0,1,885,605) translate(42.525 38.6)"/><path d="M860 620h160v80H860z" stroke="#000" stroke-width="2" fill="#fff"/><use xlink:href="#i" transform="matrix(1,0,0,1,865,625) translate(41.55 27.799999999999997)"/><use xlink:href="#j" transform="matrix(1,0,0,1,865,625) translate(41.05 49.4)"/><path d="M640 480h160v80H640z" stroke="#000" stroke-width="2" fill="#fff"/><use xlink:href="#n" transform="matrix(1,0,0,1,645,485) translate(52.55 38.6)"/><path d="M880 460h160v80H880z" stroke="#000" stroke-width="2" fill="#fff"/><use xlink:href="#h" transform="matrix(1,0,0,1,885,465) translate(42.525 38.6)"/><path d="M860 480h160v80H860z" stroke="#000" stroke-width="2" fill="#fff"/><use xlink:href="#i" transform="matrix(1,0,0,1,865,485) translate(41.55 27.799999999999997)"/><use xlink:href="#j" transform="matrix(1,0,0,1,865,485) translate(41.05 49.4)"/><path d="M640 340h160v80H640z" stroke="#000" stroke-width="2" fill="#fff"/><use xlink:href="#o" transform="matrix(1,0,0,1,645,345) translate(45.55 38.6)"/><path d="M880 320h160v80H880z" stroke="#000" stroke-width="2" fill="#fff"/><use xlink:href="#h" transform="matrix(1,0,0,1,885,325) translate(42.525 38.6)"/><path d="M860 340h160v80H860z" stroke="#000" stroke-width="2" fill="#fff"/><use xlink:href="#i" transform="matrix(1,0,0,1,865,345) translate(41.55 27.799999999999997)"/><use xlink:href="#j" transform="matrix(1,0,0,1,865,345) translate(41.05 49.4)"/><path d="M640 200h160v80H640z" stroke="#000" stroke-width="2" fill="#fff"/><use xlink:href="#f" transform="matrix(1,0,0,1,645,205) translate(49.025 38.6)"/><path d="M880 180h160v80H880z" stroke="#000" stroke-width="2" fill="#fff"/><use xlink:href="#h" transform="matrix(1,0,0,1,885,185) translate(42.525 38.6)"/><path d="M860 200h160v80H860z" stroke="#000" stroke-width="2" fill="#fff"/><use xlink:href="#i" transform="matrix(1,0,0,1,865,205) translate(41.55 27.799999999999997)"/><use xlink:href="#j" transform="matrix(1,0,0,1,865,205) translate(41.05 49.4)"/><path d="M640 60h160v80H640z" stroke="#000" stroke-width="2" fill="#fff"/><use xlink:href="#g" transform="matrix(1,0,0,1,645,65) translate(27.049999999999997 38.6)"/><path d="M800 940h59" stroke="#7ab648" stroke-width="2" fill="none"/><path d="M859 940l-14.27 4.64v-9.28z" fill="#7ab648"/><path d="M860 939.27v1.46L843.73 946v-12zm-14.27 4l10.03-3.27-10.03-3.26z" fill="#7ab648"/><path d="M960 880v-20H720v-20" stroke="#7ab648" stroke-width="2" fill="none"/><path d="M724.64 854.27h-9.28L720 840z" fill="#7ab648"/><path d="M726 855.27h-12l4.95-15.27h2.1zm-9.26-2h6.52L720 843.24z" fill="#7ab648"/><path d="M800 800h59" stroke="#7ab648" stroke-width="2" fill="none"/><path d="M859 800l-14.27 4.64v-9.28z" fill="#7ab648"/><path d="M860 799.27v1.46L843.73 806v-12zm-14.27 4l10.03-3.27-10.03-3.26z" fill="#7ab648"/><path d="M960 740v-20H720v-20" stroke="#7ab648" stroke-width="2" fill="none"/><path d="M724.64 714.27h-9.28L720 700z" fill="#7ab648"/><path d="M726 715.27h-12l4.95-15.27h2.1zm-9.26-2h6.52L720 703.24z" fill="#7ab648"/><path d="M800 660h59" stroke="#7ab648" stroke-width="2" fill="none"/><path d="M859 660l-14.27 4.64v-9.28z" fill="#7ab648"/><path d="M860 659.27v1.46L843.73 666v-12zm-14.27 4l10.03-3.27-10.03-3.26z" fill="#7ab648"/><path d="M960 600v-20H720v-20" stroke="#7ab648" stroke-width="2" fill="none"/><path d="M724.64 574.27h-9.28L720 560z" fill="#7ab648"/><path d="M726 575.27h-12l4.95-15.27h2.1zm-9.26-2h6.52L720 563.24z" fill="#7ab648"/><path d="M800 520h59" stroke="#7ab648" stroke-width="2" fill="none"/><path d="M859 520l-14.27 4.64v-9.28z" fill="#7ab648"/><path d="M860 519.27v1.46L843.73 526v-12zm-14.27 4l10.03-3.27-10.03-3.26z" fill="#7ab648"/><path d="M960 460v-20H720v-20" stroke="#7ab648" stroke-width="2" fill="none"/><path d="M724.64 434.27h-9.28L720 420z" fill="#7ab648"/><path d="M726 435.27h-12l4.95-15.27h2.1zm-9.26-2h6.52L720 423.24z" fill="#7ab648"/><path d="M800 380h59" stroke="#7ab648" stroke-width="2" fill="none"/><path d="M859 380l-14.27 4.64v-9.28z" fill="#7ab648"/><path d="M860 379.27v1.46L843.73 386v-12zm-14.27 4l10.03-3.27-10.03-3.26z" fill="#7ab648"/><path d="M960 320v-20H720v-20" stroke="#7ab648" stroke-width="2" fill="none"/><path d="M724.64 294.27h-9.28L720 280z" fill="#7ab648"/><path d="M726 295.27h-12l4.95-15.27h2.1zm-9.26-2h6.52L720 283.24z" fill="#7ab648"/><path d="M800 240h59" stroke="#7ab648" stroke-width="2" fill="none"/><path d="M859 240l-14.27 4.64v-9.28z" fill="#7ab648"/><path d="M860 239.27v1.46L843.73 246v-12zm-14.27 4l10.03-3.27-10.03-3.26z" fill="#7ab648"/><path d="M960 180v-20H720v-20" stroke="#7ab648" stroke-width="2" fill="none"/><path d="M724.64 154.27h-9.28L720 140z" fill="#7ab648"/><path d="M726 155.27h-12l4.95-15.27h2.1zm-9.26-2h6.52L720 143.24z" fill="#7ab648"/><defs><path d="M185-189c-5-48-123-54-124 2 14 75 158 14 163 119 3 78-121 87-175 55-17-10-28-26-33-46l33-7c5 56 141 63 141-1 0-78-155-14-162-118-5-82 145-84 179-34 5 7 8 16 11 25" id="p"/><path d="M100-194c62-1 85 37 85 99 1 63-27 99-86 99S16-35 15-95c0-66 28-99 85-99zM99-20c44 1 53-31 53-75 0-43-8-75-51-75s-53 32-53 75 10 74 51 75" id="q"/><path d="M210-169c-67 3-38 105-44 169h-31v-121c0-29-5-50-35-48C34-165 62-65 56 0H25l-1-190h30c1 10-1 24 2 32 10-44 99-50 107 0 11-21 27-35 58-36 85-2 47 119 55 194h-31v-121c0-29-5-49-35-48" id="r"/><path d="M100-194c63 0 86 42 84 106H49c0 40 14 67 53 68 26 1 43-12 49-29l28 8c-11 28-37 45-77 45C44 4 14-33 15-96c1-61 26-98 85-98zm52 81c6-60-76-77-97-28-3 7-6 17-6 28h103" id="s"/><path d="M212-179c-10-28-35-45-73-45-59 0-87 40-87 99 0 60 29 101 89 101 43 0 62-24 78-52l27 14C228-24 195 4 139 4 59 4 22-46 18-125c-6-104 99-153 187-111 19 9 31 26 39 46" id="t"/><path d="M24 0v-261h32V0H24" id="u"/><path d="M141-36C126-15 110 5 73 4 37 3 15-17 15-53c-1-64 63-63 125-63 3-35-9-54-41-54-24 1-41 7-42 31l-33-3c5-37 33-52 76-52 45 0 72 20 72 64v82c-1 20 7 32 28 27v20c-31 9-61-2-59-35zM48-53c0 20 12 33 32 33 41-3 63-29 60-74-43 2-92-5-92 41" id="v"/><path d="M135-143c-3-34-86-38-87 0 15 53 115 12 119 90S17 21 10-45l28-5c4 36 97 45 98 0-10-56-113-15-118-90-4-57 82-63 122-42 12 7 21 19 24 35" id="w"/><g id="a"><use transform="matrix(0.05,0,0,0.05,0,0)" xlink:href="#p"/><use transform="matrix(0.05,0,0,0.05,12,0)" xlink:href="#q"/><use transform="matrix(0.05,0,0,0.05,22,0)" xlink:href="#r"/><use transform="matrix(0.05,0,0,0.05,36.95,0)" xlink:href="#s"/><use transform="matrix(0.05,0,0,0.05,46.95,0)" xlink:href="#t"/><use transform="matrix(0.05,0,0,0.05,59.900000000000006,0)" xlink:href="#u"/><use transform="matrix(0.05,0,0,0.05,63.85,0)" xlink:href="#v"/><use transform="matrix(0.05,0,0,0.05,73.85000000000001,0)" xlink:href="#w"/><use transform="matrix(0.05,0,0,0.05,82.85000000000001,0)" xlink:href="#w"/></g><path d="M24-231v-30h32v30H24zM24 0v-190h32V0H24" id="x"/><path d="M177-190C167-65 218 103 67 71c-23-6-38-20-44-43l32-5c15 47 100 32 89-28v-30C133-14 115 1 83 1 29 1 15-40 15-95c0-56 16-97 71-98 29-1 48 16 59 35 1-10 0-23 2-32h30zM94-22c36 0 50-32 50-73 0-42-14-75-50-75-39 0-46 34-46 75s6 73 46 73" id="y"/><path d="M117-194c89-4 53 116 60 194h-32v-121c0-31-8-49-39-48C34-167 62-67 57 0H25l-1-190h30c1 10-1 24 2 32 11-22 29-35 61-36" id="z"/><path d="M96-169c-40 0-48 33-48 73s9 75 48 75c24 0 41-14 43-38l32 2c-6 37-31 61-74 61-59 0-76-41-82-99-10-93 101-131 147-64 4 7 5 14 7 22l-32 3c-4-21-16-35-41-35" id="A"/><g id="b"><use transform="matrix(0.05,0,0,0.05,0,0)" xlink:href="#s"/><use transform="matrix(0.05,0,0,0.05,10,0)" xlink:href="#x"/><use transform="matrix(0.05,0,0,0.05,13.949999999999998,0)" xlink:href="#y"/><use transform="matrix(0.05,0,0,0.05,23.95,0)" xlink:href="#s"/><use transform="matrix(0.05,0,0,0.05,33.95,0)" xlink:href="#z"/><use transform="matrix(0.05,0,0,0.05,43.95,0)" xlink:href="#A"/><use transform="matrix(0.05,0,0,0.05,52.95,0)" xlink:href="#u"/><use transform="matrix(0.05,0,0,0.05,56.900000000000006,0)" xlink:href="#v"/><use transform="matrix(0.05,0,0,0.05,66.9,0)" xlink:href="#w"/><use transform="matrix(0.05,0,0,0.05,75.9,0)" xlink:href="#w"/></g><path fill="#fff" d="M24-231v-30h32v30H24zM24 0v-190h32V0H24" id="B"/><path fill="#fff" d="M117-194c89-4 53 116 60 194h-32v-121c0-31-8-49-39-48C34-167 62-67 57 0H25l-1-190h30c1 10-1 24 2 32 11-22 29-35 61-36" id="C"/><path fill="#fff" d="M135-143c-3-34-86-38-87 0 15 53 115 12 119 90S17 21 10-45l28-5c4 36 97 45 98 0-10-56-113-15-118-90-4-57 82-63 122-42 12 7 21 19 24 35" id="D"/><path fill="#fff" d="M59-47c-2 24 18 29 38 22v24C64 9 27 4 27-40v-127H5v-23h24l9-43h21v43h35v23H59v120" id="E"/><path fill="#fff" d="M141-36C126-15 110 5 73 4 37 3 15-17 15-53c-1-64 63-63 125-63 3-35-9-54-41-54-24 1-41 7-42 31l-33-3c5-37 33-52 76-52 45 0 72 20 72 64v82c-1 20 7 32 28 27v20c-31 9-61-2-59-35zM48-53c0 20 12 33 32 33 41-3 63-29 60-74-43 2-92-5-92 41" id="F"/><path fill="#fff" d="M96-169c-40 0-48 33-48 73s9 75 48 75c24 0 41-14 43-38l32 2c-6 37-31 61-74 61-59 0-76-41-82-99-10-93 101-131 147-64 4 7 5 14 7 22l-32 3c-4-21-16-35-41-35" id="G"/><path fill="#fff" d="M100-194c63 0 86 42 84 106H49c0 40 14 67 53 68 26 1 43-12 49-29l28 8c-11 28-37 45-77 45C44 4 14-33 15-96c1-61 26-98 85-98zm52 81c6-60-76-77-97-28-3 7-6 17-6 28h103" id="H"/><g id="c"><use transform="matrix(0.05,0,0,0.05,0,0)" xlink:href="#B"/><use transform="matrix(0.05,0,0,0.05,3.95,0)" xlink:href="#C"/><use transform="matrix(0.05,0,0,0.05,13.949999999999998,0)" xlink:href="#D"/><use transform="matrix(0.05,0,0,0.05,22.95,0)" xlink:href="#E"/><use transform="matrix(0.05,0,0,0.05,27.950000000000003,0)" xlink:href="#F"/><use transform="matrix(0.05,0,0,0.05,37.95,0)" xlink:href="#C"/><use transform="matrix(0.05,0,0,0.05,47.95,0)" xlink:href="#G"/><use transform="matrix(0.05,0,0,0.05,56.95,0)" xlink:href="#H"/></g><path fill="#fff" d="M100-194c62-1 85 37 85 99 1 63-27 99-86 99S16-35 15-95c0-66 28-99 85-99zM99-20c44 1 53-31 53-75 0-43-8-75-51-75s-53 32-53 75 10 74 51 75" id="I"/><path fill="#fff" d="M101-234c-31-9-42 10-38 44h38v23H63V0H32v-167H5v-23h27c-7-52 17-82 69-68v24" id="J"/><g id="d"><use transform="matrix(0.05,0,0,0.05,0,0)" xlink:href="#I"/><use transform="matrix(0.05,0,0,0.05,10,0)" xlink:href="#J"/></g><path fill="#fff" d="M185-189c-5-48-123-54-124 2 14 75 158 14 163 119 3 78-121 87-175 55-17-10-28-26-33-46l33-7c5 56 141 63 141-1 0-78-155-14-162-118-5-82 145-84 179-34 5 7 8 16 11 25" id="K"/><path fill="#fff" d="M210-169c-67 3-38 105-44 169h-31v-121c0-29-5-50-35-48C34-165 62-65 56 0H25l-1-190h30c1 10-1 24 2 32 10-44 99-50 107 0 11-21 27-35 58-36 85-2 47 119 55 194h-31v-121c0-29-5-49-35-48" id="L"/><path fill="#fff" d="M212-179c-10-28-35-45-73-45-59 0-87 40-87 99 0 60 29 101 89 101 43 0 62-24 78-52l27 14C228-24 195 4 139 4 59 4 22-46 18-125c-6-104 99-153 187-111 19 9 31 26 39 46" id="M"/><path fill="#fff" d="M24 0v-261h32V0H24" id="N"/><g id="e"><use transform="matrix(0.05,0,0,0.05,0,0)" xlink:href="#K"/><use transform="matrix(0.05,0,0,0.05,12,0)" xlink:href="#I"/><use transform="matrix(0.05,0,0,0.05,22,0)" xlink:href="#L"/><use transform="matrix(0.05,0,0,0.05,36.95,0)" xlink:href="#H"/><use transform="matrix(0.05,0,0,0.05,46.95,0)" xlink:href="#M"/><use transform="matrix(0.05,0,0,0.05,59.900000000000006,0)" xlink:href="#N"/><use transform="matrix(0.05,0,0,0.05,63.85,0)" xlink:href="#F"/><use transform="matrix(0.05,0,0,0.05,73.85000000000001,0)" xlink:href="#D"/><use transform="matrix(0.05,0,0,0.05,82.85000000000001,0)" xlink:href="#D"/></g><path d="M140-251c81 0 123 46 123 126C263-46 219 4 140 4 59 4 17-45 17-125s42-126 123-126zm0 227c63 0 89-41 89-101s-29-99-89-99c-61 0-89 39-89 99S79-25 140-24" id="O"/><path d="M115-194c53 0 69 39 70 98 0 66-23 100-70 100C84 3 66-7 56-30L54 0H23l1-261h32v101c10-23 28-34 59-34zm-8 174c40 0 45-34 45-75 0-40-5-75-45-74-42 0-51 32-51 76 0 43 10 73 51 73" id="P"/><path d="M24-231v-30h32v30H24zM-9 49c24 4 33-6 33-30v-209h32V24c2 40-23 58-65 49V49" id="Q"/><path d="M59-47c-2 24 18 29 38 22v24C64 9 27 4 27-40v-127H5v-23h24l9-43h21v43h35v23H59v120" id="R"/><g id="f"><use transform="matrix(0.05,0,0,0.05,0,0)" xlink:href="#O"/><use transform="matrix(0.05,0,0,0.05,14,0)" xlink:href="#P"/><use transform="matrix(0.05,0,0,0.05,24,0)" xlink:href="#Q"/><use transform="matrix(0.05,0,0,0.05,27.950000000000003,0)" xlink:href="#s"/><use transform="matrix(0.05,0,0,0.05,37.95,0)" xlink:href="#A"/><use transform="matrix(0.05,0,0,0.05,46.95,0)" xlink:href="#R"/></g><path d="M160-131c35 5 61 23 61 61C221 17 115-2 30 0v-248c76 3 177-17 177 60 0 33-19 50-47 57zm-97-11c50-1 110 9 110-42 0-47-63-36-110-37v79zm0 115c55-2 124 14 124-45 0-56-70-42-124-44v89" id="S"/><g id="g"><use transform="matrix(0.05,0,0,0.05,0,0)" xlink:href="#S"/><use transform="matrix(0.05,0,0,0.05,12,0)" xlink:href="#v"/><use transform="matrix(0.05,0,0,0.05,22,0)" xlink:href="#w"/><use transform="matrix(0.05,0,0,0.05,31,0)" xlink:href="#x"/><use transform="matrix(0.05,0,0,0.05,34.95,0)" xlink:href="#A"/><use transform="matrix(0.05,0,0,0.05,43.95,0)" xlink:href="#O"/><use transform="matrix(0.05,0,0,0.05,57.95,0)" xlink:href="#P"/><use transform="matrix(0.05,0,0,0.05,67.95,0)" xlink:href="#Q"/><use transform="matrix(0.05,0,0,0.05,71.9,0)" xlink:href="#s"/><use transform="matrix(0.05,0,0,0.05,81.9,0)" xlink:href="#A"/><use transform="matrix(0.05,0,0,0.05,90.9,0)" xlink:href="#R"/></g><path d="M30-248c87 1 191-15 191 75 0 78-77 80-158 76V0H30v-248zm33 125c57 0 124 11 124-50 0-59-68-47-124-48v98" id="T"/><path d="M114-163C36-179 61-72 57 0H25l-1-190h30c1 12-1 29 2 39 6-27 23-49 58-41v29" id="U"/><g id="h"><use transform="matrix(0.05,0,0,0.05,0,0)" xlink:href="#T"/><use transform="matrix(0.05,0,0,0.05,12,0)" xlink:href="#U"/><use transform="matrix(0.05,0,0,0.05,17.95,0)" xlink:href="#q"/><use transform="matrix(0.05,0,0,0.05,27.950000000000003,0)" xlink:href="#A"/><use transform="matrix(0.05,0,0,0.05,36.95,0)" xlink:href="#s"/><use transform="matrix(0.05,0,0,0.05,46.95,0)" xlink:href="#w"/><use transform="matrix(0.05,0,0,0.05,55.95,0)" xlink:href="#w"/></g><path d="M84 4C-5 8 30-112 23-190h32v120c0 31 7 50 39 49 72-2 45-101 50-169h31l1 190h-30c-1-10 1-25-2-33-11 22-28 36-60 37" id="V"/><path d="M85-194c31 0 48 13 60 33l-1-100h32l1 261h-30c-2-10 0-23-3-31C134-8 116 4 85 4 32 4 16-35 15-94c0-66 23-100 70-100zm9 24c-40 0-46 34-46 75 0 40 6 74 45 74 42 0 51-32 51-76 0-42-9-74-50-73" id="W"/><g id="i"><use transform="matrix(0.05,0,0,0.05,0,0)" xlink:href="#x"/><use transform="matrix(0.05,0,0,0.05,3.95,0)" xlink:href="#z"/><use transform="matrix(0.05,0,0,0.05,13.949999999999998,0)" xlink:href="#A"/><use transform="matrix(0.05,0,0,0.05,22.95,0)" xlink:href="#u"/><use transform="matrix(0.05,0,0,0.05,26.899999999999995,0)" xlink:href="#V"/><use transform="matrix(0.05,0,0,0.05,36.9,0)" xlink:href="#W"/><use transform="matrix(0.05,0,0,0.05,46.9,0)" xlink:href="#s"/><use transform="matrix(0.05,0,0,0.05,56.900000000000006,0)" xlink:href="#W"/></g><path d="M240 0l2-218c-23 76-54 145-80 218h-23L58-218 59 0H30v-248h44l77 211c21-75 51-140 76-211h43V0h-30" id="X"/><g id="j"><use transform="matrix(0.05,0,0,0.05,0,0)" xlink:href="#X"/><use transform="matrix(0.05,0,0,0.05,14.950000000000001,0)" xlink:href="#q"/><use transform="matrix(0.05,0,0,0.05,24.950000000000003,0)" xlink:href="#W"/><use transform="matrix(0.05,0,0,0.05,34.95,0)" xlink:href="#V"/><use transform="matrix(0.05,0,0,0.05,44.95,0)" xlink:href="#u"/><use transform="matrix(0.05,0,0,0.05,48.900000000000006,0)" xlink:href="#s"/><use transform="matrix(0.05,0,0,0.05,58.900000000000006,0)" xlink:href="#w"/></g><g id="k"><use transform="matrix(0.05,0,0,0.05,0,0)" xlink:href="#p"/><use transform="matrix(0.05,0,0,0.05,12,0)" xlink:href="#q"/><use transform="matrix(0.05,0,0,0.05,22,0)" xlink:href="#r"/><use transform="matrix(0.05,0,0,0.05,36.95,0)" xlink:href="#s"/><use transform="matrix(0.05,0,0,0.05,46.95,0)" xlink:href="#t"/><use transform="matrix(0.05,0,0,0.05,59.900000000000006,0)" xlink:href="#u"/><use transform="matrix(0.05,0,0,0.05,63.85,0)" xlink:href="#v"/><use transform="matrix(0.05,0,0,0.05,73.85000000000001,0)" xlink:href="#w"/><use transform="matrix(0.05,0,0,0.05,82.85000000000001,0)" xlink:href="#w"/></g><g id="l"><use transform="matrix(0.05,0,0,0.05,0,0)" xlink:href="#O"/><use transform="matrix(0.05,0,0,0.05,14,0)" xlink:href="#P"/><use transform="matrix(0.05,0,0,0.05,24,0)" xlink:href="#Q"/><use transform="matrix(0.05,0,0,0.05,27.950000000000003,0)" xlink:href="#s"/><use transform="matrix(0.05,0,0,0.05,37.95,0)" xlink:href="#A"/><use transform="matrix(0.05,0,0,0.05,46.95,0)" xlink:href="#R"/></g><g id="m"><use transform="matrix(0.05,0,0,0.05,0,0)" xlink:href="#S"/><use transform="matrix(0.05,0,0,0.05,12,0)" xlink:href="#v"/><use transform="matrix(0.05,0,0,0.05,22,0)" xlink:href="#w"/><use transform="matrix(0.05,0,0,0.05,31,0)" xlink:href="#x"/><use transform="matrix(0.05,0,0,0.05,34.95,0)" xlink:href="#A"/><use transform="matrix(0.05,0,0,0.05,43.95,0)" xlink:href="#O"/><use transform="matrix(0.05,0,0,0.05,57.95,0)" xlink:href="#P"/><use transform="matrix(0.05,0,0,0.05,67.95,0)" xlink:href="#Q"/><use transform="matrix(0.05,0,0,0.05,71.9,0)" xlink:href="#s"/><use transform="matrix(0.05,0,0,0.05,81.9,0)" xlink:href="#A"/><use transform="matrix(0.05,0,0,0.05,90.9,0)" xlink:href="#R"/></g><g id="n"><use transform="matrix(0.05,0,0,0.05,0,0)" xlink:href="#t"/><use transform="matrix(0.05,0,0,0.05,12.950000000000001,0)" xlink:href="#u"/><use transform="matrix(0.05,0,0,0.05,16.900000000000002,0)" xlink:href="#v"/><use transform="matrix(0.05,0,0,0.05,26.900000000000002,0)" xlink:href="#w"/><use transform="matrix(0.05,0,0,0.05,35.900000000000006,0)" xlink:href="#w"/></g><g id="o"><use transform="matrix(0.05,0,0,0.05,0,0)" xlink:href="#X"/><use transform="matrix(0.05,0,0,0.05,14.950000000000001,0)" xlink:href="#q"/><use transform="matrix(0.05,0,0,0.05,24.950000000000003,0)" xlink:href="#W"/><use transform="matrix(0.05,0,0,0.05,34.95,0)" xlink:href="#V"/><use transform="matrix(0.05,0,0,0.05,44.95,0)" xlink:href="#u"/><use transform="matrix(0.05,0,0,0.05,48.900000000000006,0)" xlink:href="#s"/></g></defs></g></svg>